HIERARCHY
ROOT Hips
{
	OFFSET 0.00000 0.00000 0.00000
	CHANNELS 6 Xposition Yposition Zposition Zrotation Yrotation Xrotation 
	JOINT LHipJoint
	{
		OFFSET 0 0 0
		CHANNELS 3 Zrotation Yrotation Xrotation
		JOINT LeftUpLeg
		{
			OFFSET 1.75344 -1.53157 0.77399
			CHANNELS 3 Zrotation Yrotation Xrotation
			JOINT LeftLeg
			{
				OFFSET 2.25415 -6.19323 0.00000
				CHANNELS 3 Zrotation Yrotation Xrotation
				JOINT LeftFoot
				{
					OFFSET 2.30342 -6.32861 0.00000
					CHANNELS 3 Zrotation Yrotation Xrotation
					JOINT LeftToeBase
					{
						OFFSET 0.10958 -0.30108 1.49206
						CHANNELS 3 Zrotation Yrotation Xrotation
						End Site
						{
							OFFSET 0.00000 -0.00000 0.77783
						}
					}
				}
			}
		}
	}
	JOINT RHipJoint
	{
		OFFSET 0 0 0
		CHANNELS 3 Zrotation Yrotation Xrotation
		JOINT RightUpLeg
		{
			OFFSET -1.81912 -1.53156 0.77399
			CHANNELS 3 Zrotation Yrotation Xrotation
			JOINT RightLeg
			{
				OFFSET -2.22882 -6.12365 0.00000
				CHANNELS 3 Zrotation Yrotation Xrotation
				JOINT RightFoot
				{
					OFFSET -2.21943 -6.09785 0.00000
					CHANNELS 3 Zrotation Yrotation Xrotation
					JOINT RightToeBase
					{
						OFFSET -0.18931 -0.52012 1.59379
						CHANNELS 3 Zrotation Yrotation Xrotation
						End Site
						{
							OFFSET -0.00000 -0.00000 0.84686
						}
					}
				}
			}
		}
	}
	JOINT LowerBack
	{
		OFFSET 0 0 0
		CHANNELS 3 Zrotation Yrotation Xrotation
		JOINT Spine
		{
			OFFSET -0.00200 1.66634 -0.14248
			CHANNELS 3 Zrotation Yrotation Xrotation
			JOINT Spine1
			{
				OFFSET -0.00875 1.64542 0.09514
				CHANNELS 3 Zrotation Yrotation Xrotation
				JOINT Neck
				{
					OFFSET 0 0 0
					CHANNELS 3 Zrotation Yrotation Xrotation
					JOINT Neck1
					{
						OFFSET 0.02257 1.59605 0.00839
						CHANNELS 3 Zrotation Yrotation Xrotation
						JOINT Head
						{
							OFFSET -0.10214 1.57530 -0.23335
							CHANNELS 3 Zrotation Yrotation Xrotation
							End Site
							{
								OFFSET -0.03588 1.60717 -0.08062
							}
						}
					}
				}
				JOINT LeftShoulder
				{
					OFFSET 0 0 0
					CHANNELS 3 Zrotation Yrotation Xrotation
					JOINT LeftArm
					{
						OFFSET 2.54983 1.10186 0.40078
						CHANNELS 3 Zrotation Yrotation Xrotation
						JOINT LeftForeArm
						{
							OFFSET 4.28840 -0.00000 0.00000
							CHANNELS 3 Zrotation Yrotation Xrotation
							JOINT LeftHand
							{
								OFFSET 3.06552 -0.00000 -0.00000
								CHANNELS 3 Zrotation Yrotation Xrotation
								JOINT LeftFingerBase
								{
									OFFSET 0 0 0
									CHANNELS 3 Zrotation Yrotation Xrotation
									JOINT LeftHandIndex1
									{
										OFFSET 0.75304 -0.00000 0.00000
										CHANNELS 3 Zrotation Yrotation Xrotation
										End Site
										{
											OFFSET 0.60712 -0.00000 0.00000
										}
									}
								}
								JOINT LThumb
								{
									OFFSET 0 0 0
									CHANNELS 3 Zrotation Yrotation Xrotation
									End Site
									{
										OFFSET 0.61639 -0.00000 0.61639
									}
								}
							}
						}
					}
				}
				JOINT RightShoulder
				{
					OFFSET 0 0 0
					CHANNELS 3 Zrotation Yrotation Xrotation
					JOINT RightArm
					{
						OFFSET -2.60909 1.35448 0.21802
						CHANNELS 3 Zrotation Yrotation Xrotation
						JOINT RightForeArm
						{
							OFFSET -4.52172 -0.00000 -0.00000
							CHANNELS 3 Zrotation Yrotation Xrotation
							JOINT RightHand
							{
								OFFSET -2.89140 -0.00000 0.00000
								CHANNELS 3 Zrotation Yrotation Xrotation
								JOINT RightFingerBase
								{
									OFFSET 0 0 0
									CHANNELS 3 Zrotation Yrotation Xrotation
									JOINT RightHandIndex1
									{
										OFFSET -0.68054 -0.00000 0.00000
										CHANNELS 3 Zrotation Yrotation Xrotation
										End Site
										{
											OFFSET -0.54867 -0.00000 0.00000
										}
									}
								}
								JOINT RThumb
								{
									OFFSET 0 0 0
									CHANNELS 3 Zrotation Yrotation Xrotation
									End Site
									{
										OFFSET -0.55705 -0.00000 0.55705
									}
								}
							}
						}
					}
				}
			}
		}
	}
}
MOTION
Frames: 10
Frame Time: 0.0769231
0.00 0.00 0.00 0 0 0 0 0 0 -21 0 0 0 0 0 0 0 0 0 0 0 0 0 0 21 0 0 0 0 0 0 0 0 0 0 0 0 0 0 0 0 0 0 0 0 0 0 -16 0 0 21 0 0 11 0 0 0 -8 0 0 0 0 0 0 0 0 0 0 0 0 0 0 0 0 0 0 0 0 8 0 0 0 0 0 0 0 0 0 0 0 0 0 0 0 0 0
0.00 0.00 0.00 -179.4950 1.9585 -179.3610 0.0000 0.0000 0.0000 -30.7793 -18.5057 -0.3615 2.0811 9.0331 25.8988 2.0500 8.4598 -31.1615 0.8617 -5.9193 -16.5505 0.0000 0.0000 0.0000 21.0121 14.6055 -10.6930 -5.0807 -13.4741 41.1702 -1.1301 -11.5921 -27.3308 -0.0015 -0.2510 0.6896 1.4860 2.0694 6.7170 -0.0032 2.9986 -4.0423 -1.2433 1.4164 -7.9470 -5.0110 -1.9806 -3.9372 3.6289 -3.2558 13.8706 1.7526 -1.8476 4.9429 0.0000 -0.0000 0.0000 -85.9453 15.8134 37.7979 21.1844 -32.0429 -6.1475 -0.0000 -0.0000 15.0952 -2.3077 -33.8579 1.2862 -7.1250 0.0000 -0.0000 -19.0228 -2.3148 20.9465 0.0000 -0.0000 0.0000 85.0107 -14.8019 48.4419 -20.1607 30.8354 -5.6135 0.0000 0.0000 7.3566 139.6233 65.2785 -37.6837 7.1250 -0.0000 -0.0000 -168.7099 -48.9742 -1.1196
0.00 0.00 0.00 -181.3420 -0.4318 -180.0800 0.0000 0.0000 0.0000 -33.5150 -9.6149 11.0868 0.8051 5.7266 15.9932 1.5015 5.1275 -25.4894 1.9236 -8.7051 -24.8771 0.0000 0.0000 0.0000 15.4123 33.1138 -18.5464 -1.6058 -7.9916 22.6886 0.6212 -25.3000 -31.7901 -0.3927 -4.0236 11.1430 -0.2620 1.1104 7.4068 -0.6080 1.3447 -4.1389 -0.6884 0.6215 -8.5242 -4.7094 -2.0503 -6.1439 3.1565 -3.3320 15.9853 1.5172 -1.9117 5.9702 0.0000 -0.0000 0.0000 -85.8572 17.1569 39.3763 21.2389 -32.1061 -6.1764 -0.0000 -0.0000 12.4397 -0.3193 -37.1943 0.1930 -7.1250 0.0000 -0.0000 -18.0367 -5.6294 20.7280 0.0000 -0.0000 0.0000 84.8815 -14.4676 49.8037 -19.9762 30.6136 -5.5192 0.0000 0.0000 4.0518 137.3646 63.5491 -39.4990 7.1250 -0.0000 -0.0000 -170.4587 -49.8422 -1.1483
0.00 0.00 0.00 -180.6300 -6.0600 -177.1430 0.0000 0.0000 0.0000 -26.7002 -6.3514 12.5381 1.7794 8.3906 23.9069 0.1832 1.3949 -8.7208 2.3495 -9.5590 -27.5601 0.0000 0.0000 0.0000 24.2190 26.5788 -8.5966 -1.2744 -7.1546 20.1741 1.0244 -25.3423 -29.0000 -2.5568 -9.9405 28.7843 -1.7665 1.0846 3.9987 -1.5648 0.9358 -5.8689 -0.7482 0.4012 -8.4175 -7.3409 -4.8561 -4.9621 7.0009 -7.3678 13.9268 2.8944 -3.7425 5.5296 -0.0000 0.0000 0.0000 -84.8435 16.7844 38.6700 21.6374 -32.5648 -6.3896 -0.0000 -0.0000 12.0627 -1.0371 -34.9324 0.5939 -7.1250 0.0000 -0.0000 -18.3618 -3.4226 20.4803 -0.0000 0.0000 0.0000 85.2359 -18.9109 48.0092 -22.4314 33.4611 -6.8222 0.0000 -0.0000 -11.5464 127.4400 59.7495 -48.4476 7.1250 -0.0000 -0.0000 -176.8602 -49.4756 -0.3468
0.00 0.00 0.00 -178.7340 -5.4423 -177.9880 0.0000 0.0000 0.0000 -19.0998 -1.5781 4.6241 4.7024 13.0407 39.5208 0.2207 0.0949 8.8401 0.4944 -4.5082 -12.5111 0.0000 0.0000 0.0000 31.0046 20.1266 -2.1064 -0.8445 -5.8615 16.3831 0.9299 -23.0887 -25.6008 -2.5967 -10.0117 29.0146 -0.3215 1.0282 3.9784 -1.6235 0.9897 -5.7790 -1.6240 0.3418 -8.2761 -6.9939 -4.4233 -5.3916 7.0362 -6.6534 13.1391 2.8981 -3.3374 5.2953 0.0000 -0.0000 0.0000 -84.8304 16.0988 37.7889 22.0665 -33.0521 -6.6221 -0.0000 -0.0000 12.4919 -2.9956 -33.2724 1.6445 -7.1250 0.0000 -0.0000 -19.3884 -1.7179 21.1989 0.0000 -0.0000 0.0000 85.7060 -17.5854 50.6734 -23.9459 35.1070 -7.6754 0.0000 -0.0000 -12.0632 127.1544 59.6380 -48.7091 7.1250 -0.0000 -0.0000 -177.0506 -49.4412 -0.3232
0.00 0.00 0.00 -176.1880 -5.0679 -179.2800 0.0000 0.0000 0.0000 -14.0609 -0.3128 -4.4938 9.2227 16.9489 56.8572 0.3823 0.2839 11.5835 0.5181 -4.6133 -12.8087 0.0000 0.0000 0.0000 35.4068 15.6259 2.5216 -0.4079 -4.0999 11.3579 1.2028 -22.6603 -21.9065 -1.7896 -8.4133 23.9767 1.4109 0.9030 5.1100 -0.5114 1.1464 -5.2120 -1.4606 0.3921 -8.3091 -6.8597 -3.9170 -5.3255 6.8653 -5.8600 12.4234 2.8850 -2.9361 4.9968 -0.0000 -0.0000 0.0000 -86.4910 14.1764 34.8054 21.7438 -32.6862 -6.4469 -0.0000 -0.0000 12.4770 -0.7017 -32.9873 0.3821 -7.1250 0.0000 -0.0000 -18.1680 -1.5985 19.6733 -0.0000 -0.0000 0.0000 85.6557 -16.3197 51.6508 -24.4625 35.6495 -7.9745 0.0000 -0.0000 -12.2387 127.1988 59.7234 -48.6881 7.1250 -0.0000 -0.0000 -176.9696 -49.3967 -0.3288
0.00 0.00 0.00 -174.7640 -3.4262 -180.0250 0.0000 0.0000 0.0000 -11.7482 -2.9475 -17.7944 14.1972 19.1727 72.8057 0.1104 -0.5769 -6.0955 1.3943 -7.4703 -21.1165 0.0000 0.0000 0.0000 38.6565 13.6950 6.8265 -0.2358 -3.1254 8.6281 1.2928 -22.3554 -20.0212 -1.4775 -7.6803 21.7472 2.5152 1.1774 6.2299 -0.1739 1.7163 -4.6717 -1.8168 0.6416 -8.3431 -6.1021 -3.2886 -5.6713 7.4112 -5.1484 12.4157 2.9740 -2.5215 4.9950 0.0000 0.0000 0.0000 -86.7820 13.1677 31.4751 23.2364 -34.3463 -7.2712 -0.0000 -0.0000 9.4181 0.3299 -32.4027 -0.1768 -7.1250 0.0000 -0.0000 -17.6083 -1.1199 18.8559 0.0000 0.0000 0.0000 85.8863 -15.8831 54.1978 -25.7403 36.9511 -8.7311 0.0000 -0.0000 -12.2575 127.6805 60.0960 -48.3001 7.1250 -0.0000 -0.0000 -176.5144 -49.3171 -0.3715
0.00 0.00 0.00 -175.6030 0.2873 -179.6800 0.0000 0.0000 0.0000 -13.0465 -15.8343 -28.7910 8.8867 16.7343 55.6976 0.9872 3.6270 -20.4102 1.4388 -7.5834 -21.4558 0.0000 0.0000 0.0000 39.4510 13.7418 9.7182 -0.4658 -4.3775 12.1412 0.5253 -20.2977 -24.3200 -1.3545 -7.3673 20.8081 3.1963 1.3683 6.7394 -0.2258 2.2454 -4.4123 -2.3469 0.9445 -8.3147 -6.0202 -1.6531 -5.5775 7.2973 -2.9524 12.7380 3.0703 -1.4582 4.9173 -0.0000 0.0000 0.0000 -86.3385 13.0280 27.1287 21.4901 -32.3960 -6.3105 -0.0000 -0.0000 10.0902 9.6736 -36.3365 -5.7674 -7.1250 0.0000 -0.0000 -12.7747 -5.9466 14.3748 -0.0000 0.0000 0.0000 85.1689 -15.6425 54.8303 -23.2054 34.3127 -7.2538 0.0000 -0.0000 -7.8120 127.8874 60.6506 -48.2445 7.1250 -0.0000 -0.0000 -176.0362 -48.9899 -0.3906
0.00 0.00 0.00 -175.1730 2.9051 -179.0550 0.0000 0.0000 0.0000 -11.2353 -21.3532 -28.5568 4.3368 12.5956 37.8730 0.8261 5.6013 -20.0907 1.3986 -7.4814 -21.1498 0.0000 0.0000 0.0000 39.3331 11.0640 17.6970 0.0000 -0.0000 0.0000 0.9174 -19.8835 -19.0912 -0.8255 -5.7969 16.1963 4.4788 1.6210 6.3453 0.1165 2.7503 -4.5619 -2.7581 1.1402 -8.1825 -5.4934 -0.8893 -4.6237 6.5830 -1.8499 11.9022 2.8244 -0.9444 4.4147 0.0000 -0.0000 0.0000 -86.4155 14.2163 25.8528 21.0070 -31.8365 -6.0536 -0.0000 -0.0000 11.2880 7.7040 -36.0745 -4.5543 -7.1250 0.0000 -0.0000 -13.7984 -5.4196 15.4770 0.0000 -0.0000 0.0000 85.3812 -15.9242 53.1997 -21.8420 32.7980 -6.5000 0.0000 -0.0000 -3.3490 130.8193 61.5783 -45.5161 7.1250 -0.0000 -0.0000 -174.2795 -49.3762 -0.6191
0.00 0.00 0.00 -174.2880 8.1925 -177.1170 0.0000 0.0000 0.0000 -5.2504 -37.4715 -24.0806 2.2137 9.2977 26.7312 1.4130 18.9081 -35.8840 0.1352 2.3701 6.5297 0.0000 0.0000 0.0000 38.0060 8.2519 21.1538 0.0000 -0.0000 0.0000 0.2872 -15.0720 -18.0197 -0.2742 -3.3685 9.3064 6.3113 2.0090 4.6026 0.9008 3.4367 -4.6262 -2.9539 1.4612 -7.1464 -3.6317 -0.0348 -4.1822 3.7191 0.0883 9.4648 1.8979 0.1608 3.8441 0.0000 -0.0000 0.0000 -87.7255 16.2150 25.1160 21.2202 -32.0845 -6.1665 -0.0000 -0.0000 11.4158 6.6682 -35.9539 -3.9267 -7.1250 0.0000 -0.0000 -14.3391 -5.1697 16.0644 0.0000 -0.0000 0.0000 85.3131 -13.9250 51.4086 -19.6434 30.2103 -5.3507 0.0000 0.0000 2.0308 131.1401 61.7709 -45.2441 7.1250 -0.0000 -0.0000 -174.0285 -49.3397 -0.6411
